<svg width="41.593mm" height="41.288mm" version="1.1" viewBox="0 0 41.593 41.288" xml:space="preserve" xmlns="http://www.w3.org/2000/svg" xmlns:xlink="http://www.w3.org/1999/xlink"><g transform="translate(-66.118 -161.38)"><g><ellipse cx="86.915" cy="182.03" rx="20.164" ry="20.012" fill="#f2e3db" stroke="#000" stroke-width="1.265"/><path d="m71.679 174.13s4.7993-9.517 15.52-9.5787c10.721-0.0617 15.52 9.5356 15.52 9.5356s-6.918-8.209-15.52-8.209c-8.602 0-15.52 8.2521-15.52 8.2521z" fill="#fff"/></g><g transform="translate(-.7355)"><g fill="none" stroke="#000"><path d="m87.625 195.61s-2.6466 0.20274-5.0147-1.9218-2.8139-6.7053 0.53039-11.226c1.0712-1.448 1.7332-3.5069 2.1154-9.4473-0.19732-2.2492 2.3688-2.1142 2.3688-2.1142m0 24.709s2.6466 0.20274 5.0147-1.9218 2.8139-6.7053-0.53039-11.226c-1.0712-1.448-1.7332-3.5069-2.1154-9.4473 0.19732-2.2492-2.3688-2.1142-2.3688-2.1142" stroke-dasharray="1.695, 0.565" stroke-width=".565"/><path d="m88.079 170.33s-0.03091-0.60828 0.92328-1.0854c0.64225-0.33424 1.5758-0.90491 1.5758-0.90491" stroke-width=".565"/><path id="use5" d="m87.528 196.24v2.0054" fill="none" stroke="#000" stroke-width=".47182"/></g><use xlink:href="#use5"/><use transform="rotate(30 87.65 188.52)" xlink:href="#use5"/><use transform="rotate(60 87.65 188.52)" xlink:href="#use5"/><use transform="rotate(90 87.65 188.52)" xlink:href="#use5"/><use transform="rotate(120 87.65 188.52)" xlink:href="#use5"/><use transform="rotate(240 87.65 188.52)" xlink:href="#use5"/><use transform="rotate(-90 87.65 188.52)" xlink:href="#use5"/><use transform="rotate(-60 87.65 188.52)" xlink:href="#use5"/><use transform="rotate(-30 87.65 188.52)" xlink:href="#use5"/><g fill="none" stroke="#000" stroke-width=".47182"><path d="m91.183 168.82-1.213 1.5969"/><path d="m92.835 172.53-1.9749 0.34823"/><path d="m93.668 177.93-1.9749 0.34824"/><path d="m82.02 172.6 1.9749 0.34824"/><path d="m81.318 177.45 1.9749 0.34824"/><path d="m84.255 168.76 1.1043 1.674"/></g></g></g></svg>
