<svg width="41.593mm" height="41.288mm" version="1.1" viewBox="0 0 41.593 41.288" xml:space="preserve" xmlns="http://www.w3.org/2000/svg"><g transform="translate(-66.118 -161.38)"><g stroke="#000"><ellipse cx="86.915" cy="182.03" rx="20.164" ry="20.012" fill="#f2e3db" stroke-width="1.265"/><path d="m100.96 196.29c0-7.732-6.3111-14.022-14.043-14.022-7.732 0-14 6.268-14 14 6.981 7.0846 20.093 8.2649 28.043 0.0216z" fill="#e86a33" stroke-width="1.065"/><path d="m73.081 187.73c-0.02157 0.0108 4.9181-14.064 13.072-5.8025-0.32356 3.8827-7.6144 0.44219-13.072 5.8025z" fill="#21422a" stroke-width="1.165"/><path d="m86.487 177.37c-0.0148-0.24884 1.8313 0.0857 1.6825 0.79811-0.67722 3.2227 0.0427 6.6096 0.0427 6.6096s2.3928 0.88216 2.4442 0.9266c0.0522 0.045-0.40251 0.9032-0.82364 1.016-0.25611 0.0686-1.7086-1.1335-2.6845-1.1745-0.96062-0.0403-2.4191 0.93042-2.7302 0.93042-0.34717 0-1.0067-0.39068-0.94567-0.43644 0.06101-0.0458 2.7874-1.2622 2.7874-1.2622s-0.21065-6.3887 0.22713-7.4078z" stroke-width=".865"/></g><path d="m71.679 174.13s4.7993-9.517 15.52-9.5787c10.721-0.0617 15.52 9.5356 15.52 9.5356s-6.918-8.209-15.52-8.209c-8.602 0-15.52 8.2521-15.52 8.2521z" fill="#fff"/><path d="m84.565 176.82q-0.30317 0.13229-0.55122 0.24805-0.24254 0.11575-0.63941 0.24253-0.33624 0.10473-0.73312 0.17639-0.39136 0.0772-0.86541 0.0772-0.89297 0-1.6261-0.24805-0.7276-0.25356-1.2678-0.78824-0.52917-0.52365-0.82682-1.3284-0.29766-0.81028-0.29766-1.8796 0-1.0142 0.28663-1.8135 0.28663-0.79927 0.82682-1.3505 0.52366-0.53468 1.2623-0.8158 0.74414-0.28112 1.6481-0.28112 0.66146 0 1.3174 0.15985 0.66146 0.15985 1.4662 0.56224v1.2954h-0.08268q-0.678-0.56775-1.345-0.82682-0.66697-0.25908-1.4276-0.25908-0.62287 0-1.1245 0.20395-0.49609 0.19844-0.88746 0.62288-0.38034 0.41341-0.59531 1.0473-0.20946 0.62838-0.20946 1.4552 0 0.86541 0.23151 1.4883 0.23702 0.62287 0.60634 1.0142 0.38585 0.4079 0.89848 0.60633 0.51814 0.19293 1.0914 0.19293 0.78824 0 1.4773-0.2701 0.68902-0.27009 1.2898-0.81028h0.07717zm11.476-1.7474q0 0.47956-0.226 0.94809-0.22049 0.46854-0.62287 0.79376-0.44097 0.35277-1.0308 0.55121-0.58429 0.19844-1.4111 0.19844-0.88746 0-1.5985-0.16537-0.70556-0.16536-1.4387-0.49058v-1.367h0.07717q0.62287 0.51814 1.4387 0.79926 0.8158 0.28112 1.5324 0.28112 1.0142 0 1.5765-0.38034 0.56775-0.38034 0.56775-1.0142 0-0.5457-0.2701-0.80477-0.26458-0.25907-0.81029-0.40239-0.41341-0.11024-0.89848-0.1819-0.47956-0.0717-1.0197-0.1819-1.0914-0.23151-1.6206-0.78824-0.52366-0.56224-0.52366-1.4607 0-1.0308 0.87092-1.6867 0.87092-0.66146 2.2104-0.66146 0.86541 0 1.5875 0.16536 0.72209 0.16537 1.2788 0.4079v1.2898h-0.07717q-0.46853-0.39688-1.2347-0.65595-0.76068-0.26458-1.5599-0.26458-0.87643 0-1.4111 0.3638-0.52917 0.3638-0.52917 0.93707 0 0.51263 0.26458 0.80477 0.26458 0.29215 0.93156 0.44649 0.35278 0.0772 1.0032 0.18741 0.65044 0.11024 1.1024 0.226 0.91502 0.24253 1.378 0.73312 0.46302 0.49058 0.46302 1.3725z" fill="#21422a" stroke-width=".865" aria-label="C S"/></g></svg>
