<svg width="41.593mm" height="41.288mm" version="1.1" viewBox="0 0 41.593 41.288" xml:space="preserve" xmlns="http://www.w3.org/2000/svg"><g transform="translate(-66.118 -161.38)"><ellipse cx="86.915" cy="182.03" rx="20.164" ry="20.012" fill="#f2e3db" stroke="#000" stroke-width="1.265"/><g fill="none" stroke="#000"><path d="m100.96 196.29c0-7.732-6.3111-14.022-14.043-14.022-7.732 0-14 6.268-14 14 6.981 7.0846 20.093 8.2649 28.043 0.0216z" stroke-dasharray="3.19500017, 1.06500006" stroke-width="1.065"/><path d="m73.081 187.73c-0.02157 0.0108 4.9181-14.064 13.072-5.8025-0.32356 3.8827-7.6144 0.44219-13.072 5.8025z" stroke-dasharray="3.49499989, 1.16499996" stroke-width="1.165"/><path d="m86.487 177.37c-0.0148-0.24884 1.8313 0.0857 1.6825 0.79811-0.67722 3.2227 0.0427 6.6096 0.0427 6.6096s2.3928 0.88216 2.4442 0.9266c0.0522 0.045-0.40251 0.9032-0.82364 1.016-0.25611 0.0686-1.7086-1.1335-2.6845-1.1745-0.96062-0.0403-2.4191 0.93042-2.7302 0.93042-0.34717 0-1.0067-0.39068-0.94567-0.43644 0.06101-0.0458 2.7874-1.2622 2.7874-1.2622s-0.21065-6.3887 0.22713-7.4078z" stroke-dasharray="2.59500003, 0.86500001" stroke-width=".865"/></g><path d="m71.679 174.13s4.7993-9.517 15.52-9.5787c10.721-0.0617 15.52 9.5356 15.52 9.5356s-6.918-8.209-15.52-8.209c-8.602 0-15.52 8.2521-15.52 8.2521z" fill="#fff"/><text x="83.689461" y="197.0116" fill="#21422a" font-family="Arial" font-size="11.289px" letter-spacing=".26458px" stroke-dasharray="3.49499, 1.165" stroke-width=".865" xml:space="preserve"><tspan x="83.689461" y="197.0116" fill="#21422a" stroke-width=".865">?</tspan></text></g></svg>
